<?xml version="1.0" encoding="utf-8"?>
<!-- Generator: Adobe Illustrator 22.1.0, SVG Export Plug-In . SVG Version: 6.00 Build 0)  -->
<svg version="1.1" id="MKTG_ICN_1" xmlns="http://www.w3.org/2000/svg" xmlns:xlink="http://www.w3.org/1999/xlink" x="0px" y="0px"
	 viewBox="0 0 1024 1024" style="enable-background:new 0 0 1024 1024;" xml:space="preserve">
<style type="text/css">
	.st0{fill:none;stroke:#FFFFFF;stroke-width:25;stroke-linecap:round;stroke-linejoin:round;stroke-miterlimit:10;}
</style>
<title>deliver-best-ux</title>
<g>
	<title>Imagine-the-Possibilities</title>
	<desc>Created with Sketch.</desc>
	<g id="Phase-II_1_">
		<g id="Desktop_values_1_" transform="translate(-71.000000, -1045.000000)">
			<g id="Imagine-the-Possibilities_1_" transform="translate(73.000000, 1047.000000)">
				<path id="Shape_13_" class="st0" d="M510,331.9c-86.6,0-157.6,68.5-157.6,156.2c0,46.6,22.6,83.5,43.7,116.5
					s40.4,62.3,40.4,93.6v75.4h147.1v-75.4c0-31.3,19.3-60.6,40.4-93.6c21.1-33,43.7-69.9,43.7-116.5
					C667.6,400.4,596.6,331.9,510,331.9z"/>
				<path id="Shape_12_" class="st0" d="M434.9,683.7H585"/>
				<path id="Shape-Copy_1_" class="st0" d="M436.9,728.6H583"/>
				<polyline id="Shape_11_" class="st0" points="329.9,309.4 352.4,331.9 329.9,309.4 				"/>
				<polyline id="Shape_10_" class="st0" points="510,227.1 510,264.5 510,227.1 				"/>
				<polyline id="Shape_9_" class="st0" points="697.6,309.4 675.1,331.9 697.6,309.4 				"/>
				<polyline id="Shape_8_" class="st0" points="772.7,489.1 735.2,489.1 772.7,489.1 				"/>
				<polyline id="Shape_7_" class="st0" points="247.3,489.1 284.8,489.1 247.3,489.1 				"/>
			</g>
		</g>
	</g>
</g>
</svg>
