<?xml version="1.0" encoding="utf-8"?>
<!-- Generator: Adobe Illustrator 23.0.1, SVG Export Plug-In . SVG Version: 6.00 Build 0)  -->
<svg version="1.1" id="MKTG_ICN_1" xmlns="http://www.w3.org/2000/svg" xmlns:xlink="http://www.w3.org/1999/xlink" x="0px" y="0px"
	 viewBox="0 0 1050 1050" style="enable-background:new 0 0 1050 1050;" xml:space="preserve">
<style type="text/css">
	.st0{fill:none;stroke:#FFFFFF;stroke-width:25;stroke-linecap:round;stroke-linejoin:round;stroke-miterlimit:10;}
	
		.st1{fill-rule:evenodd;clip-rule:evenodd;fill:none;stroke:#FFFFFF;stroke-width:25;stroke-linecap:round;stroke-linejoin:round;stroke-miterlimit:10;}
</style>
<title>Passionate</title>
<g>
	<g>
		<polygon class="st0" points="731.4,553 674.4,496 471.4,699.5 471.4,756 528,756 		"/>
		<line class="st0" x1="635.5" y1="534.9" x2="692.5" y2="591.9"/>
	</g>
	<line class="st1" x1="218.5" y1="424" x2="835.5" y2="424"/>
	<line class="st0" x1="273.5" y1="358" x2="279.5" y2="358"/>
	<line class="st0" x1="324.5" y1="358" x2="330.5" y2="358"/>
	<line class="st0" x1="491.5" y1="358" x2="723.5" y2="358"/>
	<g>
		<line class="st0" x1="275.5" y1="595" x2="485.9" y2="595"/>
		<line class="st0" x1="275.5" y1="680" x2="396.1" y2="680"/>
		<line class="st0" x1="275.5" y1="509" x2="485.9" y2="509"/>
	</g>
	<g>
		<g>
			<g>
				<path class="st0" d="M414.9,756H252c-19.2,0-39.5-20.3-39.5-45.3V339.3c0-25,20.3-45.3,45.3-45.3h534.3
					c25,0,45.3,20.3,45.3,45.3v371.3c0,25-20.3,45.3-45.3,45.3H587.5"/>
			</g>
		</g>
	</g>
</g>
</svg>
