<?xml version="1.0" encoding="utf-8"?>
<!-- Generator: Adobe Illustrator 23.0.1, SVG Export Plug-In . SVG Version: 6.00 Build 0)  -->
<svg version="1.1" id="MKTG_ICN_1" xmlns="http://www.w3.org/2000/svg" xmlns:xlink="http://www.w3.org/1999/xlink" x="0px" y="0px"
	 viewBox="0 0 1050 1050" style="enable-background:new 0 0 1050 1050;" xml:space="preserve">
<style type="text/css">
	.st0{fill:none;stroke:#FFFFFF;stroke-width:25;stroke-linecap:round;stroke-linejoin:round;}
	.st1{fill:none;stroke:#FFFFFF;stroke-width:25;stroke-linejoin:round;}
</style>
<title>Passionate</title>
<g>
	<path class="st0" d="M525.9,696c39.2,0,71.1-35.2,71.1-78.4s-31.9-78.4-71.1-78.4s-71.1,35.2-71.1,78.4S486.8,696,525.9,696z"/>
	<path class="st1" d="M463.8,715.7c13.3,14.4,36.2,23.9,62.1,23.9c26,0,48.8-9.5,62.2-23.9c52.9,19,66.5,61.3,69.8,85.1
		c2.3,15.3-7.7,29.8-22.8,33.2c-37.6,8.5-75.9,12.8-114.4,12.8c-32.6,0-68.7-3.3-105-12.7c-14.6-3.9-24-18.1-21.8-33
		C397.3,777.2,410.7,734.8,463.8,715.7z"/>
	<path class="st0" d="M347.3,582.8c-25,0-45.3-22.4-45.3-50s20.3-50,45.3-50s45.3,22.4,45.3,50C392.6,560.4,372.3,582.8,347.3,582.8
		z"/>
	<path class="st0" d="M409.6,619.1c-6-4.2-12.5-7.6-19.5-10c-9.2,9.9-24.9,16.5-42.8,16.5s-33.6-6.5-42.8-16.5
		c-36.4,13.1-45.8,42.2-48.1,58.6c-1.6,10.5,5.3,20.5,15.7,22.8c25.9,5.8,52.3,8.8,78.8,8.8c15.2,0,30.5-1.1,45.5-3.4"/>
	<path class="st0" d="M702.7,582.8c25,0,45.3-22.4,45.3-50s-20.3-50-45.3-50s-45.3,22.4-45.3,50
		C657.4,560.4,677.7,582.8,702.7,582.8z"/>
	<path class="st0" d="M640.4,619.1c6-4.2,12.5-7.6,19.5-10c9.2,9.9,24.9,16.5,42.8,16.5s33.6-6.5,42.8-16.5
		c36.4,13.1,45.8,42.2,48.1,58.6c1.6,10.5-5.3,20.5-15.7,22.8c-25.9,5.8-52.3,8.8-78.8,8.8c-15.2,0-30.5-1.1-45.5-3.4"/>
	<circle class="st0" cx="525.9" cy="336.7" r="133.5"/>
	<line class="st0" x1="658.7" y1="336.7" x2="391.7" y2="336.7"/>
	<ellipse class="st0" cx="525.9" cy="336.7" rx="50.4" ry="133.5"/>
	<line class="st0" x1="409.9" y1="271.3" x2="636.5" y2="271.3"/>
	<line class="st0" x1="412.6" y1="402.2" x2="639.3" y2="402.2"/>
</g>
</svg>
