<?xml version="1.0" encoding="utf-8"?>
<!-- Generator: Adobe Illustrator 23.0.1, SVG Export Plug-In . SVG Version: 6.00 Build 0)  -->
<svg version="1.1" id="MKTG_ICN_1" xmlns="http://www.w3.org/2000/svg" xmlns:xlink="http://www.w3.org/1999/xlink" x="0px" y="0px"
	 viewBox="0 0 1050 1050" style="enable-background:new 0 0 1050 1050;" xml:space="preserve">
<style type="text/css">
	.st0{fill:none;stroke:#FFFFFF;stroke-width:25;stroke-linecap:round;stroke-linejoin:round;stroke-miterlimit:10;}
	.st1{fill:none;stroke:#FFFFFF;stroke-width:25;stroke-linejoin:round;stroke-miterlimit:10;}
</style>
<title>Passionate</title>
<g>
	<g>
		<g>
			<ellipse class="st0" cx="525" cy="574" rx="83.6" ry="92.2"/>
		</g>
		<path class="st1" d="M451.9,689.4c15.7,17,42.6,28.1,73.1,28.1c30.5,0,57.4-11.2,73.1-28.2c62.2,22.3,78.1,72.1,82.1,100
			c2.6,18.1-8.9,34.9-26.8,39c-25.1,5.8-74.9,15.1-134.6,15.1c-38.3,0-80.8-3.8-123.4-14.9c-17.1-4.4-28.1-21.1-25.6-38.8
			C373.7,761.8,389.5,711.8,451.9,689.4z"/>
	</g>
	<g>
		<g>
			<ellipse class="st0" cx="316" cy="474.4" rx="53.3" ry="58.7"/>
			<path class="st0" d="M389.3,575.8c-6.4-4.5-13.9-8.6-22.9-11.8c-10.8,11.7-29.3,19.4-50.3,19.4c-21,0-39.6-7.7-50.4-19.4
				c-42.8,15.4-53.8,49.7-56.5,68.9c-1.8,12.5,6.2,24,18.4,26.9c17.3,4,51.6,10.4,92.7,10.4c16.9,0,35-1.1,53.5-3.9"/>
		</g>
		<g>
			<ellipse class="st0" cx="734" cy="474.4" rx="53.3" ry="58.7"/>
			<path class="st0" d="M660.7,575.8c6.4-4.5,13.9-8.6,22.9-11.8c10.8,11.7,29.3,19.4,50.3,19.4c21,0,39.6-7.7,50.4-19.4
				c42.8,15.4,53.8,49.7,56.5,68.9c1.8,12.5-6.2,24-18.4,26.9c-17.3,4-51.6,10.4-92.7,10.4c-16.9,0-35-1.1-53.5-3.9"/>
		</g>
	</g>
	<g>
		<g>
			<line class="st0" x1="525.5" y1="206.5" x2="525.5" y2="322.5"/>
			<polyline class="st0" points="479.4,251.5 524.2,206.8 570.6,253.2 			"/>
			<g>
				<g>
					<line class="st0" x1="648.5" y1="274.5" x2="648.5" y2="389.5"/>
					<polyline class="st0" points="603.2,318.7 647.9,274 694.3,320.4 					"/>
				</g>
				<g>
					<line class="st0" x1="400.5" y1="274.5" x2="400.5" y2="389.5"/>
					<polyline class="st0" points="355.7,318.7 400.4,274 446.8,320.4 					"/>
				</g>
			</g>
		</g>
	</g>
</g>
</svg>
