<?xml version="1.0" encoding="utf-8"?>
<!-- Generator: Adobe Illustrator 23.0.1, SVG Export Plug-In . SVG Version: 6.00 Build 0)  -->
<svg version="1.1" id="MKTG_ICN_1" xmlns="http://www.w3.org/2000/svg" xmlns:xlink="http://www.w3.org/1999/xlink" x="0px" y="0px"
	 viewBox="0 0 1050 1050" style="enable-background:new 0 0 1050 1050;" xml:space="preserve">
<style type="text/css">
	.st0{fill:none;stroke:#FFFFFF;stroke-width:25;stroke-linecap:round;stroke-linejoin:round;stroke-miterlimit:10;}
</style>
<title>Passionate</title>
<g>
	<g>
		<g>
			<ellipse class="st0" cx="341.9" cy="421.1" rx="77.4" ry="85.3"/>
			<line class="st0" x1="270.5" y1="637.4" x2="270.5" y2="739.4"/>
			<path class="st0" d="M482.7,404.5l-77.6,134c-6.4,3.8-35.1,19.7-63.3,19.7c-32,0-64.6-20.5-64.6-20.5
				c-59.2,21.7-74.1,72.2-77.7,100.3c-0.3,2.5-0.3,101.7-0.3,101.7"/>
			<polyline class="st0" points="463.5,739.4 462.7,580.8 524.6,473.6 			"/>
		</g>
		<g>
			<ellipse class="st0" cx="708.1" cy="421.1" rx="77.4" ry="85.3"/>
			<line class="st0" x1="779.5" y1="637.4" x2="779.5" y2="739.4"/>
			<path class="st0" d="M567.5,404.2l77.3,134.3c6.4,3.8,35.1,19.7,63.3,19.7c32,0,64.6-20.5,64.6-20.5
				c59.2,21.7,74.1,72.2,77.7,100.3c0.3,2.5,0.3,101.7,0.3,101.7"/>
			<path class="st0" d="M483.8,402.3"/>
			<polyline class="st0" points="586.5,739.4 587.3,580.8 525.4,473.6 			"/>
		</g>
	</g>
	<path class="st0" d="M577,315c-17-9.8-38.9-3.9-48.7,13.1l-3.2,5.6l-3.2-5.6C512,311,490,305.1,473,315
		c-17,9.8-22.9,31.7-13.1,48.7l23.8,41.3l41.2,71.4l41.2-71.4l23.8-41.3C599.8,346.7,594,324.8,577,315z"/>
</g>
</svg>
